<?xml version="1.0" encoding="utf-8"?>
<!-- Generator: Adobe Illustrator 28.0.0, SVG Export Plug-In . SVG Version: 6.00 Build 0)  -->
<svg version="1.1" xmlns="http://www.w3.org/2000/svg" xmlns:xlink="http://www.w3.org/1999/xlink" x="0px" y="0px"
	 viewBox="0 0 566.9 566.9" style="enable-background:new 0 0 566.9 566.9;" xml:space="preserve">
<g id="Calque_1">
</g>
<g id="Mode_Isolation">
	<g>
		<g>
			<path d="M346.2,288.7c-16.6-34.4-48-54.4-83.7-46.6c-44.9,9.9-65.7,56.8-51.8,119.5c14.6,66,53.6,95.4,100.5,85.1
				c36.3-8,55.7-39.3,60.5-77.1l78.3,22.1c-12.8,67.2-60.1,116.4-122.8,130.3c-101,22.3-181.3-34-204.9-140.9
				C99.8,279.5,149,189,247.4,167.2c73.3-16.2,137.5,14.6,170.3,75.2L346.2,288.7z"/>
		</g>
		<polygon points="295.6,84.8 263.1,126.6 188.7,126.4 250.5,40.1 342.4,40.4 403,127.1 328,126.8 		"/>
	</g>
</g>
</svg>
