<?xml version="1.0" encoding="UTF-8"?>
<svg id="Mode_Isolation" data-name="Mode Isolation" xmlns="http://www.w3.org/2000/svg" viewBox="0 0 3645.78 1238.75">
  <defs>
    <style>
      .cls-1 {
        stroke-width: 0px;
      }
    </style>
  </defs>
  <g>
    <path class="cls-1" d="m622.27,563c-16.61-34.4-48.04-54.45-83.68-46.57-44.88,9.92-65.68,56.75-51.81,119.45,14.59,66,53.64,95.44,100.5,85.08,36.3-8.03,55.69-39.31,60.49-77.06l78.28,22.15c-12.83,67.22-60.09,116.44-122.79,130.3-100.98,22.33-181.27-33.99-204.92-140.91-22.48-101.64,26.74-192.13,125.08-213.88,73.26-16.2,137.52,14.59,170.31,75.18l-71.46,46.26Z"/>
    <path class="cls-1" d="m847.91,604.17v189.26h-92.6v-488.03h92.6v174.39c20.28-20.95,54.75-40.56,89.9-40.56,60.16,0,124.37,29.07,124.37,129.1v225.09h-93.28v-219c0-41.23-25.01-58.13-54.07-58.13-20.96,0-64.89,12.17-66.92,87.87Z"/>
    <path class="cls-1" d="m1310.93,562.94c0-25.69-18.93-51.37-56.1-51.37-58.8,0-83.14,46.64-87.87,64.21l-69.62-41.23c25.69-54.75,77.73-95.31,162.23-95.31s139.24,50.02,139.24,114.91v146c0,13.52,8.79,20.28,19.6,20.28,10.14,0,26.36-4.73,30.42-6.76l-14.2,72.32c-7.44,4.73-29.74,15.55-52.05,15.55-32.45,0-56.1-18.93-60.83-51.37-21.63,22.3-62.19,52.72-117.61,52.72s-108.15-35.82-108.15-100.72c0-85.17,78.41-107.47,141.95-114.91,22.98-2.7,52.05-5.41,73-6.76v-17.57Zm-125.05,130.45c0,21.63,16.22,34.47,39.21,34.47,26.36,0,80.44-17.57,86.52-75.03v-14.87c-14.87,1.35-41.23,4.73-57.46,7.44-39.2,6.76-68.27,22.3-68.27,47.99Z"/>
    <path class="cls-1" d="m1644.95,783.75c-16.24,7.4-37.89,16.13-62.9,16.08-55.43-.13-88.47-32.65-88.33-92.14l.44-185.88-60.16-.14.18-76.38,60.16.14.12-51.37,90.78-86.31-.32,137.89,70.97.17-.18,76.38-70.3-.16-.4,170.33c-.04,17.57,9.39,29.09,26.97,29.13,12.17.03,34.49-5.33,48.69-10.02l-15.72,72.29Z"/>
    <path class="cls-1" d="m1912.52,562.94c0-25.69-18.93-51.37-56.1-51.37-58.81,0-83.14,46.64-87.87,64.21l-69.62-41.23c25.69-54.75,77.73-95.31,162.23-95.31s139.24,50.02,139.24,114.91v146c0,13.52,8.79,20.28,19.6,20.28,10.14,0,26.36-4.73,30.42-6.76l-14.2,72.32c-7.44,4.73-29.74,15.55-52.05,15.55-32.45,0-56.1-18.93-60.83-51.37-21.63,22.3-62.19,52.72-117.61,52.72s-108.15-35.82-108.15-100.72c0-85.17,78.41-107.47,141.95-114.91,22.98-2.7,52.05-5.41,73-6.76v-17.57Zm-125.05,130.45c0,21.63,16.22,34.47,39.21,34.47,26.36,0,80.44-17.57,86.52-75.03v-14.87c-14.87,1.35-41.23,4.73-57.46,7.44-39.21,6.76-68.27,22.3-68.27,47.99Z"/>
    <path class="cls-1" d="m2105.4,444.68l87.13,9.96-37.58,342.67-87.13-9.96,37.58-342.67Z"/>
    <path class="cls-1" d="m2300.67,820.47c8.79,24.33,33.12,37.85,66.24,37.85,64.22,0,98.69-46.64,94.63-110.18-18.93,28.39-55.43,52.05-102.06,52.05-89.23,0-150.74-67.59-150.74-180.48s63.54-180.48,152.09-180.48c51.37,0,87.87,30.42,107.47,54.75l7.44-45.29h75.03v294.71c0,118.29-66.92,189.94-187.91,189.94-80.44,0-143.3-41.23-153.44-112.88h91.25Zm158.17-190.61v-19.6c0-49.34-34.47-92.6-79.76-92.6-49.34,0-79.08,40.56-79.08,102.07s33.12,103.42,81.11,103.42c39.88,0,77.73-33.8,77.73-93.28Z"/>
    <path class="cls-1" d="m2679.2,604.84v188.59h-92.6v-344.73h79.09l9.46,48.67c16.22-31.09,54.75-58.13,93.96-58.13,74.35,0,124.37,43.26,124.37,129.1v225.09h-93.28v-218.33c0-35.83-22.98-58.13-54.07-58.13-20.96,0-64.22,12.17-66.92,87.87Z"/>
    <path class="cls-1" d="m3229.59,731.61c-37.72,55.71-100.06,83.58-171.56,68.83-92.68-19.12-151.45-98.88-127.97-212.74,20.62-99.96,95.51-165.26,198.79-143.96,95.99,19.8,139.48,106.76,118.99,206.06-1.37,6.62-5.97,22.24-5.97,22.24l-35.63-4.59-189.33-39.05c-10.47,44.08,10.21,87.69,57.21,97.38,34.42,7.1,65-7.3,84.8-36.34l70.67,42.18Zm-195.05-168.6l128.43,26.49c6.69-32.44-12.59-66.09-50.99-74.01-38.4-7.92-68.9,16.16-77.44,47.52Z"/>
    <polygon class="cls-1" points="1248.58 373.5 1216 415.31 1141.65 415.07 1203.44 328.75 1295.37 329.04 1355.92 415.76 1280.89 415.52 1248.58 373.5"/>
    <path class="cls-1" d="m2061.79,364.65c0,30.48,23.14,53.06,52.5,53.06s53.06-22.58,53.06-53.06-22.58-52.5-53.06-52.5-52.5,23.14-52.5,52.5"/>
  </g>
  <g>
    <path class="cls-1" d="m622.27,563c-16.61-34.4-48.04-54.45-83.68-46.57-44.88,9.92-65.68,56.75-51.81,119.45,14.59,66,53.64,95.44,100.5,85.08,36.3-8.03,55.69-39.31,60.49-77.06l78.28,22.15c-12.83,67.22-60.09,116.44-122.79,130.3-100.98,22.33-181.27-33.99-204.92-140.91-22.48-101.64,26.74-192.13,125.08-213.88,73.26-16.2,137.52,14.59,170.31,75.18l-71.46,46.26Z"/>
    <path class="cls-1" d="m847.91,604.17v189.26h-92.6v-488.03h92.6v174.39c20.28-20.95,54.75-40.56,89.9-40.56,60.16,0,124.37,29.07,124.37,129.1v225.09h-93.28v-219c0-41.23-25.01-58.13-54.07-58.13-20.96,0-64.89,12.17-66.92,87.87Z"/>
    <path class="cls-1" d="m1310.93,562.94c0-25.69-18.93-51.37-56.1-51.37-58.8,0-83.14,46.64-87.87,64.21l-69.62-41.23c25.69-54.75,77.73-95.31,162.23-95.31s139.24,50.02,139.24,114.91v146c0,13.52,8.79,20.28,19.6,20.28,10.14,0,26.36-4.73,30.42-6.76l-14.2,72.32c-7.44,4.73-29.74,15.55-52.05,15.55-32.45,0-56.1-18.93-60.83-51.37-21.63,22.3-62.19,52.72-117.61,52.72s-108.15-35.82-108.15-100.72c0-85.17,78.41-107.47,141.95-114.91,22.98-2.7,52.05-5.41,73-6.76v-17.57Zm-125.05,130.45c0,21.63,16.22,34.47,39.21,34.47,26.36,0,80.44-17.57,86.52-75.03v-14.87c-14.87,1.35-41.23,4.73-57.46,7.44-39.2,6.76-68.27,22.3-68.27,47.99Z"/>
    <path class="cls-1" d="m1644.95,783.75c-16.24,7.4-37.89,16.13-62.9,16.08-55.43-.13-88.47-32.65-88.33-92.14l.44-185.88-60.16-.14.18-76.38,60.16.14.12-51.37,90.78-86.31-.32,137.89,70.97.17-.18,76.38-70.3-.16-.4,170.33c-.04,17.57,9.39,29.09,26.97,29.13,12.17.03,34.49-5.33,48.69-10.02l-15.72,72.29Z"/>
    <path class="cls-1" d="m1912.52,562.94c0-25.69-18.93-51.37-56.1-51.37-58.81,0-83.14,46.64-87.87,64.21l-69.62-41.23c25.69-54.75,77.73-95.31,162.23-95.31s139.24,50.02,139.24,114.91v146c0,13.52,8.79,20.28,19.6,20.28,10.14,0,26.36-4.73,30.42-6.76l-14.2,72.32c-7.44,4.73-29.74,15.55-52.05,15.55-32.45,0-56.1-18.93-60.83-51.37-21.63,22.3-62.19,52.72-117.61,52.72s-108.15-35.82-108.15-100.72c0-85.17,78.41-107.47,141.95-114.91,22.98-2.7,52.05-5.41,73-6.76v-17.57Zm-125.05,130.45c0,21.63,16.22,34.47,39.21,34.47,26.36,0,80.44-17.57,86.52-75.03v-14.87c-14.87,1.35-41.23,4.73-57.46,7.44-39.21,6.76-68.27,22.3-68.27,47.99Z"/>
    <path class="cls-1" d="m2105.4,444.68l87.13,9.96-37.58,342.67-87.13-9.96,37.58-342.67Z"/>
    <path class="cls-1" d="m2300.67,820.47c8.79,24.33,33.12,37.85,66.24,37.85,64.22,0,98.69-46.64,94.63-110.18-18.93,28.39-55.43,52.05-102.06,52.05-89.23,0-150.74-67.59-150.74-180.48s63.54-180.48,152.09-180.48c51.37,0,87.87,30.42,107.47,54.75l7.44-45.29h75.03v294.71c0,118.29-66.92,189.94-187.91,189.94-80.44,0-143.3-41.23-153.44-112.88h91.25Zm158.17-190.61v-19.6c0-49.34-34.47-92.6-79.76-92.6-49.34,0-79.08,40.56-79.08,102.07s33.12,103.42,81.11,103.42c39.88,0,77.73-33.8,77.73-93.28Z"/>
    <path class="cls-1" d="m2679.2,604.84v188.59h-92.6v-344.73h79.09l9.46,48.67c16.22-31.09,54.75-58.13,93.96-58.13,74.35,0,124.37,43.26,124.37,129.1v225.09h-93.28v-218.33c0-35.83-22.98-58.13-54.07-58.13-20.96,0-64.22,12.17-66.92,87.87Z"/>
    <path class="cls-1" d="m3229.59,731.61c-37.72,55.71-100.06,83.58-171.56,68.83-92.68-19.12-151.45-98.88-127.97-212.74,20.62-99.96,95.51-165.26,198.79-143.96,95.99,19.8,139.48,106.76,118.99,206.06-1.37,6.62-5.97,22.24-5.97,22.24l-35.63-4.59-189.33-39.05c-10.47,44.08,10.21,87.69,57.21,97.38,34.42,7.1,65-7.3,84.8-36.34l70.67,42.18Zm-195.05-168.6l128.43,26.49c6.69-32.44-12.59-66.09-50.99-74.01-38.4-7.92-68.9,16.16-77.44,47.52Z"/>
    <polygon class="cls-1" points="1248.58 373.5 1216 415.31 1141.65 415.07 1203.44 328.75 1295.37 329.04 1355.92 415.76 1280.89 415.52 1248.58 373.5"/>
    <path class="cls-1" d="m2061.79,364.65c0,30.48,23.14,53.06,52.5,53.06s53.06-22.58,53.06-53.06-22.58-52.5-53.06-52.5-52.5,23.14-52.5,52.5"/>
  </g>
</svg>